# xmcd
#
# Track frame offsets: 
#        150
#        19405
#        34927
#        47944
#        64278
#        81638
#        96143
#        110171
#        129637
#        146303
#        168303
#
# Disc length: 2484 seconds
#
# Revision: 0
# Processed by: cddbd v1.5.2PL0 Copyright (c) Steve Scherf et al.
# Submitted via: ExactAudioCopy v1.0b3
#
DISCID=a309b20b
DTITLE=Jason Blaine - Sweet Sundown
DYEAR=2010
DGENRE=Country
TTITLE0=Run with Me
TTITLE1=Numb
TTITLE2=Sweet Sundown (Every Sweet Sundown)
TTITLE3=Up in Smoke
TTITLE4=Pictures
TTITLE5=Hillbilly Girl
TTITLE6=Hit It Hard
TTITLE7=Me and the Sun
TTITLE8=When You Love Someone
TTITLE9=Home Is a Highway (with Steve Wariner)
TTITLE10=Heroes
EXTD=
EXTT0=
EXTT1=
EXTT2=
EXTT3=
EXTT4=
EXTT5=
EXTT6=
EXTT7=
EXTT8=
EXTT9=
EXTT10=
PLAYORDER=
